# https://github.com/mikedh/trimesh
v 0.06106300 0.00269500 0.01088700
v 0.10687300 0.01433400 -0.01810700
v 0.10817100 0.01512500 -0.01848500
v 0.10830400 0.01664300 -0.01770800
v 0.10762400 0.01291400 -0.01902600
v 0.11176000 0.02096200 -0.01635100
v 0.11154300 0.01916800 -0.01784800
v 0.11002300 0.01849700 -0.01742600
v 0.11176400 0.01754800 -0.01840800
v 0.11480300 0.01912900 -0.01818100
v 0.11601900 0.02324000 -0.01661000
v 0.11552600 0.02082900 -0.01784900
v 0.11427100 0.02339800 -0.01486200
v 0.10988400 0.01721100 -0.01824000
v 0.11398600 0.01624300 -0.01874200
v 0.11922600 0.01721000 -0.01856700
v 0.12055300 0.01972100 -0.01793600
v 0.11192900 0.01170100 -0.01954500
v 0.11993600 0.01217000 -0.01916900
v 0.12491400 0.01481800 -0.01828300
v 0.12026300 0.00648600 -0.01954200
v 0.12756400 0.00909300 -0.01869500
v 0.10304300 -0.00119000 -0.01886900
v 0.10356200 0.00520200 -0.01885200
v 0.10422500 0.00031900 -0.01957200
v 0.10384400 -0.00396900 -0.01917400
v 0.10438000 -0.00352200 -0.01947700
v 0.10344100 -0.00608800 -0.01846900
v 0.10543800 -0.00220900 -0.01978000
v 0.10505500 -0.00684000 -0.01944600
v 0.10521600 -0.00956800 -0.01890500
v 0.10897800 -0.00747300 -0.01981200
v 0.11227800 -0.00665700 -0.01988600
v 0.10756800 -0.01017300 -0.01964800
v 0.11080900 -0.00915800 -0.01975400
v 0.11495500 -0.00983000 -0.01978000
v 0.10493800 0.01093100 -0.01827400
v 0.11133400 0.00530800 -0.01983000
v 0.10655000 0.00245700 -0.01994300
v 0.11001100 -0.00023200 -0.02000900
v 0.11896800 0.00260500 -0.01986100
v 0.11532500 0.00044900 -0.01996500
v 0.12088900 -0.00249000 -0.01973300
v 0.12662300 0.00346500 -0.01924400
v 0.11676400 -0.00334000 -0.01995800
v 0.10642700 -0.01474700 -0.01704700
v 0.10712800 -0.01294600 -0.01888000
v 0.10881100 -0.01435900 -0.01905200
v 0.11139900 -0.01410700 -0.01928700
v 0.10836700 -0.01639300 -0.01746000
v 0.11109800 -0.01818700 -0.01810200
v 0.10954600 -0.01835300 -0.01662100
v 0.11322800 -0.01798000 -0.01874400
v 0.11232700 -0.02019900 -0.01707900
v 0.11385700 -0.02017300 -0.01786300
v 0.11746600 -0.01752100 -0.01869400
v 0.11151400 -0.02062500 -0.01549300
v 0.11375800 -0.02228400 -0.01504700
v 0.12414700 -0.00067700 -0.01959400
v 0.12455600 -0.00331200 -0.01946500
v 0.12729300 -0.00612700 -0.01906700
v 0.13442700 0.00567000 -0.01781000
v 0.12998500 -0.00048200 -0.01885100
v 0.12808900 -0.00333100 -0.01907400
v 0.13365300 0.00072200 -0.01814200
v 0.13114000 -0.00520200 -0.01849500
v 0.12114000 -0.00915100 -0.01941000
v 0.12549600 -0.00904000 -0.01901500
v 0.11977400 -0.01233400 -0.01918200
v 0.12687600 -0.01262900 -0.01854800
v 0.12913500 -0.01448900 -0.01801700
v 0.13018900 -0.01034900 -0.01824400
v 0.13714100 -0.00201900 -0.01747300
v 0.13470000 -0.00724300 -0.01775200
v 0.13757100 -0.00807800 -0.01704400
v 0.13431900 -0.01179500 -0.01741400
v 0.13372000 -0.01536500 -0.01712100
v 0.13143100 -0.01829400 -0.01711600
v 0.13910700 -0.01225900 -0.01621600
v 0.13504700 -0.01997000 -0.01608100
v 0.11566000 -0.01808700 -0.01870000
v 0.12226000 -0.01651500 -0.01852000
v 0.11811500 -0.02058500 -0.01810700
v 0.11798200 -0.02382200 -0.01628300
v 0.11640100 -0.02401600 -0.01360900
v 0.11811900 -0.02306000 -0.01714800
v 0.11937500 -0.02235700 -0.01765500
v 0.12353000 -0.01867900 -0.01810400
v 0.12481700 -0.02154400 -0.01744200
v 0.12743300 -0.01959300 -0.01751200
v 0.12328200 -0.02446900 -0.01658200
v 0.12010300 -0.02431400 -0.01649200
v 0.11911600 -0.02495100 -0.01460800
v 0.12145700 -0.02553200 -0.01542200
v 0.12621400 -0.02577300 -0.01535400
v 0.11857400 -0.02528200 -0.01197000
v 0.12261800 -0.02634900 -0.01211900
v 0.11946800 -0.02639000 -0.00732900
v 0.12451100 -0.02630300 -0.01421700
v 0.13116000 -0.02377800 -0.01597000
v 0.12714000 -0.02376300 -0.01664800
v 0.12981300 -0.02506900 -0.01559600
v 0.12826700 -0.02664100 -0.01344700
v 0.13132700 -0.02579900 -0.01437200
v 0.13175600 -0.02089400 -0.01656100
v 0.13456500 -0.02339900 -0.01537500
v 0.13728200 -0.02126200 -0.01535000
v 0.13596300 -0.02422800 -0.01456200
v 0.14036000 -0.02197400 -0.01422500
v 0.13165200 -0.02665000 -0.01228600
v 0.13283700 -0.02676900 -0.00882200
v 0.13476400 -0.02557600 -0.01319000
v 0.13512600 -0.02588700 -0.01149300
v 0.12673100 -0.02688400 -0.01183300
v 0.12932100 -0.02726900 -0.00863500
v 0.13876500 -0.02387300 -0.01346500
v 0.10475000 0.00467000 -0.01964600
v 0.10607500 0.00828800 -0.01953200
v 0.10742300 0.00730000 -0.01975900
v 0.06144200 0.00562400 0.01795700
v 0.06136000 0.00536100 0.02559300
v 0.06231700 0.00286200 0.02868700
v 0.11545600 0.02634400 -0.00328500
v 0.11603100 0.02771100 0.00325000
v 0.11248000 0.02728700 0.01285400
v 0.11469700 0.02785200 0.00978000
v 0.11731900 0.02846600 0.00661600
v 0.11644300 0.02858400 0.01185100
v 0.11145900 0.02720000 0.01595000
v 0.11496500 0.02845600 0.01569200
v 0.12131800 0.02937600 0.00834400
v 0.11959900 0.02942600 0.01393000
v 0.11621700 0.02887100 0.01917000
v 0.12352500 0.02979800 0.01924700
v 0.11394000 0.02861300 0.02687400
v 0.11735100 0.02942200 0.02754700
v 0.06437200 -0.00668600 0.01433100
v 0.06315100 -0.00702900 0.02182400
v 0.06000400 -0.00282800 0.02903700
v 0.11102600 0.02761000 0.02656300
v 0.10949100 0.02711400 0.02998200
v 0.12038000 0.02973500 0.03467600
v 0.11964700 0.02973400 0.03097400
v 0.12057700 0.02980600 0.02788600
v 0.12354400 0.02982300 0.02820600
v 0.12160700 0.02980400 0.03209100
v 0.11760500 0.02952800 0.03670600
v 0.12120900 0.02960400 0.04166100
v 0.12469600 0.02942300 0.04048700
v 0.12750700 0.02886700 0.03980700
v 0.12361000 0.02935800 0.04387600
v 0.12911200 0.02825600 0.04423700
v 0.10926600 0.02730800 0.03903900
v 0.10887500 0.02718900 0.04322100
v 0.11271800 0.02847000 0.03770800
v 0.11033700 0.02767000 0.04657400
v 0.11120200 0.02801100 0.04438400
v 0.11472600 0.02908700 0.04389900
v 0.11834500 0.02947100 0.04516300
v 0.10894800 0.02707600 0.05165600
v 0.11418200 0.02886400 0.04801800
v 0.11193900 0.02806100 0.05260100
v 0.11506400 0.02911600 0.04844700
v 0.11902200 0.02929700 0.04949100
v 0.10680600 0.02616500 0.05203300
v 0.12146300 0.02933400 0.04773700
v 0.12541100 0.02883300 0.04740200
v 0.10748700 0.02635500 0.05666000
v 0.10493800 0.02506200 0.05990800
v 0.10548000 0.02504200 0.06375400
v 0.10766700 0.02585500 0.06520000
v 0.10393700 0.02410700 0.06562500
v 0.10297900 0.02294300 0.06837400
v 0.10478800 0.02430200 0.06785400
v 0.10101500 0.02185900 0.06799900
v 0.10409900 0.02289100 0.06949800
v 0.10664100 0.02412200 0.06995100
v 0.10997700 0.02626600 0.06881300
v 0.10636800 0.02311100 0.07049200
v 0.10827900 0.02466500 0.07020500
v 0.11194400 0.02626900 0.06989400
v 0.10845000 0.02258300 0.07127100
v 0.09507300 0.01507800 0.06790400
v 0.09664200 0.01817400 0.06671400
v 0.09762900 0.01816800 0.06815800
v 0.09886700 0.01953300 0.06839400
v 0.10082700 0.02043100 0.06935900
v 0.09706100 0.01624000 0.06906700
v 0.09350200 0.01179800 0.06807400
v 0.09952200 0.01233800 0.07056800
v 0.10294700 0.02041200 0.07033300
v 0.09224400 0.00860200 0.06799800
v 0.09432500 0.01032000 0.06896900
v 0.09060700 0.00452700 0.06690100
v 0.09112400 0.00350800 0.06779800
v 0.09275800 0.00598800 0.06874500
v 0.09765300 0.00663000 0.07047100
v 0.09212000 0.00058600 0.06868500
v 0.09572700 -0.00178500 0.06997400
v 0.10345500 0.00647900 0.07224200
v 0.10065000 0.00194700 0.07157200
v 0.10867800 0.01467300 0.07277400
v 0.10508900 0.01298800 0.07210800
v 0.11659100 0.02901200 0.05244300
v 0.11419400 0.02854200 0.05492700
v 0.11202400 0.02768900 0.06089000
v 0.11996300 0.02897600 0.05386000
v 0.10867300 0.02670600 0.05819300
v 0.11464200 0.02784300 0.06425300
v 0.12167600 0.02917600 0.05039700
v 0.12175200 0.02875800 0.05524600
v 0.12832300 0.02775700 0.05111600
v 0.12471100 0.02810200 0.05581400
v 0.12477200 0.02758300 0.05991100
v 0.12860100 0.02706200 0.05563200
v 0.13097200 0.02658400 0.05291900
v 0.12751500 0.02663800 0.06087700
v 0.11602000 0.02776200 0.06647100
v 0.11910100 0.02726800 0.06847100
v 0.12158100 0.02730600 0.06619000
v 0.11213200 0.02720600 0.06519900
v 0.11396700 0.02720800 0.06843300
v 0.11236000 0.02514700 0.07120600
v 0.11566400 0.02590500 0.07142800
v 0.11503800 0.02710500 0.06937000
v 0.11849800 0.02685700 0.07051600
v 0.11475800 0.02476000 0.07189000
v 0.11322400 0.01873200 0.07300200
v 0.12232100 0.02685000 0.06891600
v 0.11960700 0.02464600 0.07258700
v 0.12139000 0.02554500 0.07205900
v 0.12155000 0.02634700 0.07099600
v 0.11874300 0.01986600 0.07357900
v 0.12450300 0.02681900 0.06557600
v 0.13004200 0.02630800 0.05733400
v 0.13232000 0.02504400 0.05803700
v 0.13417400 0.02370100 0.05939200
v 0.12484300 0.02610500 0.06951400
v 0.12736800 0.02558300 0.06724100
v 0.12996500 0.02450500 0.06762400
v 0.12443000 0.02563300 0.07130200
v 0.12752200 0.02492600 0.07051400
v 0.13107300 0.02283600 0.07142400
v 0.11776100 0.01217500 0.07471200
v 0.10886500 0.00754100 0.07355300
v 0.11431400 0.00495200 0.07482600
v 0.10849100 0.00128400 0.07371100
v 0.12338400 0.01690400 0.07449500
v 0.12066400 0.00743200 0.07548400
v 0.12010500 0.00141000 0.07569300
v 0.11356000 -0.00323600 0.07471800
v 0.12566700 0.00429800 0.07594300
v 0.12515100 -0.00457700 0.07590000
v 0.12061400 -0.00581200 0.07547300
v 0.11664800 0.02462900 -0.01475100
v 0.11478300 0.02424900 -0.01270900
v 0.12017300 0.02415300 -0.01674700
v 0.12066800 0.02579100 -0.01523900
v 0.12182800 0.02355400 -0.01697700
v 0.12069400 0.02654100 -0.01321000
v 0.12230700 0.02556300 -0.01578300
v 0.12333800 0.02684400 -0.01428400
v 0.12386800 0.02663900 -0.01486600
v 0.11735000 0.02587300 -0.01031600
v 0.11891300 0.02711000 -0.00668900
v 0.12466000 0.02757900 -0.01199400
v 0.12336400 0.02785300 -0.00861000
v 0.12645900 0.02628000 -0.01525500
v 0.12462400 0.02520400 -0.01614600
v 0.12501600 0.02222700 -0.01707400
v 0.12849200 0.01963200 -0.01712100
v 0.12723000 0.02513000 -0.01590400
v 0.12977600 0.02445800 -0.01587400
v 0.12695500 0.02720200 -0.01377400
v 0.12944100 0.02747300 -0.01275800
v 0.12973900 0.02594700 -0.01503800
v 0.13083300 0.02650100 -0.01426900
v 0.12585300 0.02810000 -0.00867000
v 0.13313900 0.02468800 -0.01520700
v 0.13252600 0.02265200 -0.01584400
v 0.13401500 0.02677500 -0.01248300
v 0.13209400 0.02760700 -0.00978300
v 0.13535500 0.02537300 -0.01399900
v 0.13761200 0.02562100 -0.01228800
v 0.13263200 0.01852700 -0.01655800
v 0.13015000 0.01449700 -0.01764900
v 0.12419700 0.02863900 -0.00302700
v 0.12764500 0.02838600 -0.00567900
v 0.12207600 0.02870100 -0.00007300
v 0.11871200 0.02834600 0.00165100
v 0.12044600 0.02882900 0.00334700
v 0.12756400 0.02885100 -0.00141700
v 0.12360900 0.02927000 0.00326100
v 0.12893500 0.02893600 0.00101100
v 0.13653100 0.02645800 -0.01018800
v 0.13543900 0.02691500 -0.00865700
v 0.13110100 0.02820000 -0.00383400
v 0.13335900 0.02786400 -0.00254700
v 0.13765900 0.02627000 -0.00579100
v 0.13696900 0.02397700 -0.01443000
v 0.13554100 0.02284900 -0.01524500
v 0.13854300 0.01994900 -0.01509400
v 0.14007900 0.02398100 -0.01295000
v 0.14115400 0.02212000 -0.01388000
v 0.13570400 0.01621200 -0.01636500
v 0.13888200 0.01483000 -0.01586900
v 0.14469500 0.01832300 -0.01368000
v 0.14422200 0.01528400 -0.01429800
v 0.13286100 0.00995800 -0.01773200
v 0.13790700 0.01084800 -0.01664100
v 0.14758000 0.01477200 -0.01329500
v 0.13707400 0.00045800 -0.01744000
v 0.13945900 0.00295000 -0.01686900
v 0.14332100 0.00379400 -0.01575300
v 0.14157300 0.00931100 -0.01587100
v 0.14786500 0.01033500 -0.01380400
v 0.14595200 0.00673000 -0.01473600
v 0.15003500 0.00738000 -0.01337600
v 0.14233900 0.02354500 -0.01079100
v 0.14011000 0.02503900 -0.00880300
v 0.14346200 0.02203300 -0.01236000
v 0.14401000 0.02087500 -0.01295800
v 0.14541300 0.02137400 -0.01056200
v 0.14697300 0.01926900 -0.01182000
v 0.14287500 0.02348500 -0.00771000
v 0.14574600 0.02125700 -0.00789900
v 0.14754500 0.01953200 -0.00637800
v 0.14834100 0.01657000 -0.01254500
v 0.14874500 0.01781100 -0.01098100
v 0.15087800 0.01123800 -0.01262500
v 0.15111800 0.01392300 -0.01124200
v 0.15231800 0.01080400 -0.01150900
v 0.14835700 0.01866700 -0.00978100
v 0.14945200 0.01729200 -0.00713700
v 0.15113600 0.01486400 -0.00969200
v 0.15144100 0.01439400 -0.00787200
v 0.15353600 0.01017300 -0.00831200
v 0.15332400 0.01001300 -0.01014100
v 0.15419600 0.00766400 -0.00531300
v 0.12468300 0.02944900 0.00582100
v 0.12783700 0.02926600 0.00424000
v 0.12464400 0.02971300 0.01118200
v 0.13101800 0.02883200 0.00560600
v 0.12918700 0.02936700 0.01088300
v 0.13382600 0.02807000 0.00218900
v 0.13621800 0.02722600 0.00198200
v 0.13859200 0.02626100 0.00282800
v 0.13271700 0.02863300 0.01002600
v 0.13598900 0.02745100 0.00901900
v 0.13983100 0.02556400 0.00555800
v 0.13903900 0.02600000 0.00781800
v 0.12897500 0.02937200 0.01698400
v 0.13452300 0.02801700 0.01539400
v 0.13798300 0.02657600 0.01129700
v 0.13996000 0.02547300 0.01367200
v 0.14192300 0.02427900 0.01166800
v 0.13623400 0.02716400 0.01844000
v 0.14157300 0.02435600 0.01521800
v 0.14164900 0.02418400 0.01801700
v 0.14336800 0.02332500 0.00029500
v 0.14202300 0.02428400 0.00449600
v 0.14706100 0.02011200 -0.00100900
v 0.14448500 0.02257400 0.00222300
v 0.14444500 0.02250400 0.00593100
v 0.14245700 0.02404100 0.00758200
v 0.14770700 0.01943700 0.00259300
v 0.14490000 0.02201000 0.00979300
v 0.14715000 0.02003900 0.00558300
v 0.14817400 0.01874800 0.00612900
v 0.14964600 0.01710700 -0.00167400
v 0.15068500 0.01547200 0.00182400
v 0.15348700 0.00949900 -0.00177600
v 0.15218000 0.01273800 0.00035400
v 0.14957800 0.01687800 0.00613000
v 0.15152700 0.01316000 0.00906000
v 0.15385600 0.00782200 0.00193300
v 0.15309000 0.00961100 0.00687100
v 0.15450100 0.00467600 0.00330800
v 0.15397900 0.00628600 0.00663600
v 0.14398900 0.02247100 0.01468000
v 0.14589800 0.02096200 0.01227700
v 0.14860600 0.01786500 0.01067700
v 0.14997000 0.01581700 0.01102900
v 0.14616100 0.02019800 0.01681800
v 0.14787900 0.01834300 0.01536000
v 0.14916600 0.01593400 0.01845200
v 0.15078800 0.01372100 0.01505500
v 0.15210900 0.01094800 0.01371900
v 0.15326800 0.00843700 0.01037200
v 0.15195700 0.00972000 0.01973600
v 0.11424600 -0.02563000 -0.00157000
v 0.11243900 -0.02592400 0.00495200
v 0.11374600 -0.02683400 0.00737100
v 0.11746400 -0.02758100 0.00340100
v 0.11759500 -0.02789200 0.00561600
v 0.13794500 -0.00476600 -0.01722600
v 0.13990900 -0.00413600 -0.01684800
v 0.14394700 -0.00051600 -0.01564400
v 0.14218000 -0.00635100 -0.01600900
v 0.14265900 -0.00966500 -0.01559100
v 0.14233200 -0.01464700 -0.01512400
v 0.11615900 -0.02595800 -0.00423200
v 0.11701300 -0.02669900 -0.00133300
v 0.12123700 -0.02722400 -0.00492400
v 0.11895200 -0.02736000 -0.00061900
v 0.12274400 -0.02757300 -0.00419200
v 0.12478200 -0.02787100 -0.00353400
v 0.12186500 -0.02813200 0.00089400
v 0.12439000 -0.02835800 0.00049100
v 0.12430500 -0.02861600 0.00286200
v 0.12721900 -0.02843000 0.00129300
v 0.13573700 -0.02598600 -0.00937200
v 0.13655900 -0.02610000 -0.00522900
v 0.13347200 -0.02695600 -0.00566700
v 0.13872500 -0.02540100 -0.00286000
v 0.12794600 -0.02766000 -0.00571100
v 0.13161100 -0.02743900 -0.00546000
v 0.13214600 -0.02778800 -0.00049700
v 0.13496700 -0.02693700 -0.00111900
v 0.12125900 -0.02885200 0.00701200
v 0.12391600 -0.02899800 0.00654200
v 0.12702800 -0.02881100 0.00521000
v 0.12891900 -0.02862900 0.00411000
v 0.12741200 -0.02903900 0.00786600
v 0.12983600 -0.02899500 0.01399100
v 0.14023900 -0.02465100 -0.00116600
v 0.13910600 -0.02545700 0.00271000
v 0.14125600 -0.02426500 0.00334100
v 0.14046600 -0.02477700 0.00482500
v 0.13441500 -0.02751400 0.00593500
v 0.13046000 -0.02867300 0.00628800
v 0.13279000 -0.02818400 0.01038400
v 0.13403800 -0.02783600 0.01328700
v 0.13673700 -0.02672300 0.00769300
v 0.13661000 -0.02687800 0.01148400
v 0.13934300 -0.02563500 0.01014300
v 0.15379400 0.00453700 0.01354600
v 0.15429300 -0.00004300 0.01035900
v 0.15390500 0.00183300 0.01535200
v 0.15294300 0.00620900 0.01953100
v 0.15361700 -0.00375300 0.01704400
v 0.15342400 0.00360500 0.01955500
v 0.15243900 -0.00589600 0.02418600
v 0.15248100 -0.00782900 0.01921000
v 0.15115400 -0.01149700 0.01958100
v 0.14359400 -0.02263800 0.00530300
v 0.14263100 -0.02347800 0.01144400
v 0.13175300 -0.02860900 0.01632400
v 0.13629000 -0.02703000 0.01576100
v 0.14103400 -0.02445900 0.01418100
v 0.13891000 -0.02570700 0.01490100
v 0.13177100 -0.02874000 0.02252000
v 0.14432600 -0.02159200 0.01815800
v 0.14885600 -0.01548200 0.02194100
v 0.14796300 -0.01761300 0.01599600
v 0.15045400 -0.01336400 0.01828200
v 0.14659600 -0.01876700 0.02162300
v 0.14449600 -0.02107700 0.02223000
v 0.14790800 -0.01608300 0.02708900
v 0.13778100 -0.02591700 0.02542300
v 0.13582700 -0.02701000 0.02630000
v 0.13822100 -0.02545900 0.03005400
v 0.13446800 -0.02744200 0.02985100
v 0.14183700 -0.02293400 0.03076200
v 0.15313600 0.00585800 -0.01217900
v 0.15378600 0.00688700 -0.01128100
v 0.15429000 0.00737600 -0.00944700
v 0.15234500 -0.00007700 -0.01277000
v 0.15426200 -0.00112100 -0.01149900
v 0.15471800 0.00266100 -0.01071700
v 0.15515800 0.00297500 -0.00939600
v 0.15506200 -0.00069900 -0.01028900
v 0.15527400 -0.00128600 -0.00807200
v 0.15491700 0.00493800 -0.00715200
v 0.15490300 0.00437300 -0.00227600
v 0.15498500 0.00272900 -0.00157700
v 0.15248800 -0.00307000 -0.01260800
v 0.15083900 -0.00849300 -0.01300600
v 0.14680300 -0.00679200 -0.01455100
v 0.14690900 -0.01130000 -0.01418000
v 0.15277700 -0.00784600 -0.01193200
v 0.15054000 -0.01151100 -0.01266900
v 0.15077000 -0.01327700 -0.01181400
v 0.15251200 -0.01111500 -0.01045300
v 0.14885100 -0.01375900 -0.01303000
v 0.14049500 -0.02015200 -0.01479400
v 0.14261000 -0.02024600 -0.01395100
v 0.14546900 -0.01755100 -0.01375700
v 0.14537600 -0.01939600 -0.01290400
v 0.14595500 -0.01993400 -0.01131800
v 0.14409600 -0.02100900 -0.01244100
v 0.14800200 -0.01675400 -0.01252300
v 0.15026300 -0.01538400 -0.01002200
v 0.15179000 -0.01306400 -0.00971900
v 0.14768200 -0.01836400 -0.01098900
v 0.14389000 -0.02189500 -0.01043500
v 0.14505600 -0.02097500 -0.00908100
v 0.14827600 -0.01801900 -0.00908100
v 0.14832700 -0.01802000 -0.00642600
v 0.15416900 -0.00549800 -0.01075700
v 0.15469100 -0.00503400 -0.00876500
v 0.15352900 -0.00893400 -0.00998200
v 0.15298300 -0.01051500 -0.00930600
v 0.15375200 -0.00862800 -0.00669300
v 0.15276700 -0.01121800 -0.00504100
v 0.15508800 -0.00084400 -0.00166500
v 0.15464700 -0.00504200 -0.00234400
v 0.15412700 -0.00753600 -0.00197000
v 0.15049900 -0.01518200 -0.00346200
v 0.14766700 -0.01882000 -0.00294700
v 0.14920300 -0.01694100 0.00014900
v 0.15164400 -0.01302800 -0.00001200
v 0.15300500 -0.01026800 0.00052100
v 0.14190800 -0.02278200 -0.01210000
v 0.14086500 -0.02364000 -0.01124700
v 0.13848000 -0.02482000 -0.01154200
v 0.14260500 -0.02285100 -0.00780700
v 0.14381200 -0.02217700 -0.00636700
v 0.14206400 -0.02345100 -0.00371500
v 0.14468100 -0.02154700 -0.00428200
v 0.13996800 -0.02463400 -0.00509100
v 0.14683700 -0.01971200 0.00298900
v 0.14613000 -0.02040000 0.00153400
v 0.14816900 -0.01825700 0.00419900
v 0.15484000 0.00211200 0.00218500
v 0.15489000 -0.00144200 0.00117400
v 0.15410300 -0.00616600 0.00403200
v 0.15465800 0.00157300 0.00628400
v 0.15452700 -0.00146700 0.00672100
v 0.15384900 -0.00639900 0.00711000
v 0.15281400 -0.01031400 0.00409600
v 0.14996500 -0.01571900 0.00663400
v 0.15160700 -0.01283000 0.00618100
v 0.15230400 -0.01081900 0.00905800
v 0.15326700 -0.00816100 0.00992600
v 0.15110900 -0.01324800 0.01162600
v 0.15192100 -0.01083100 0.01457000
v 0.15400000 -0.00428500 0.01189000
v 0.14888500 -0.01708100 0.00991900
v 0.14601600 -0.02055500 0.00733200
v 0.14709100 -0.01913400 0.01124500
v 0.14990500 -0.01482700 0.01476900
v 0.12705600 0.02959700 0.02911800
v 0.13169000 0.02843700 0.02964700
v 0.13201800 0.02821000 0.03267800
v 0.13449700 0.02748800 0.02989600
v 0.13898500 0.02550900 0.02240700
v 0.13971500 0.02463000 0.03077700
v 0.14222900 0.02258300 0.03100200
v 0.13240300 0.02715200 0.04317200
v 0.13603000 0.02558300 0.04072400
v 0.13713300 0.02520900 0.03869400
v 0.13306400 0.02633800 0.04689900
v 0.13725200 0.02546600 0.03556200
v 0.14446300 0.02059000 0.03147700
v 0.14665200 0.01784600 0.03154000
v 0.13118700 0.02730700 0.04635500
v 0.13888500 0.02272900 0.04740900
v 0.14556200 0.01699900 0.04034300
v 0.14335100 0.01889300 0.04443100
v 0.15324100 0.00216700 0.02290700
v 0.15319700 -0.00141000 0.02279600
v 0.15216700 0.00178900 0.03257300
v 0.15198700 -0.00312300 0.03244300
v 0.15160400 -0.00552000 0.03244200
v 0.14873200 0.01426900 0.03212700
v 0.14718700 0.01634600 0.03370600
v 0.15030800 0.01094000 0.03222600
v 0.15147600 0.00711700 0.03225100
v 0.14838500 0.01232300 0.03910200
v 0.15064100 0.00348800 0.03990600
v 0.14880500 0.00675100 0.04682400
v 0.14981300 0.00190000 0.04530600
v 0.14933300 -0.00085000 0.04857600
v 0.14743600 -0.01612900 0.03130100
v 0.14557800 -0.01879700 0.03134700
v 0.14676300 -0.01560800 0.03722700
v 0.14686500 -0.01445500 0.04048900
v 0.15053300 -0.00954200 0.03219800
v 0.14891800 -0.01344300 0.03205600
v 0.14313600 -0.02033000 0.03723000
v 0.14189800 -0.01980500 0.04673700
v 0.14055000 -0.02220800 0.04142100
v 0.13908200 -0.02296000 0.04391700
v 0.14234200 -0.01726800 0.05462100
v 0.14027300 -0.02023900 0.05277500
v 0.14931200 -0.00722600 0.04337700
v 0.14846200 -0.00508200 0.05073800
v 0.14734700 -0.01235300 0.04398300
v 0.14774900 -0.00902700 0.04941900
v 0.14387700 -0.01721700 0.04758400
v 0.14553500 -0.01398800 0.04924300
v 0.13672400 0.02418700 0.04820000
v 0.13370800 0.02525800 0.05244500
v 0.13558100 0.02355900 0.05556100
v 0.13586100 0.02400000 0.05217900
v 0.13864800 0.02172800 0.05332000
v 0.14116600 0.01967400 0.05099500
v 0.14534100 0.01596900 0.04500600
v 0.14580300 0.01424800 0.04773200
v 0.14242800 0.01719300 0.05446000
v 0.14284800 0.01797600 0.05032800
v 0.14442100 0.01531000 0.05135100
v 0.14643300 0.01233800 0.04928200
v 0.14574100 0.01179600 0.05388700
v 0.13575200 0.02150200 0.06388000
v 0.13965300 0.01969400 0.05707500
v 0.13902500 0.01832200 0.06402000
v 0.13276600 0.02275300 0.06797400
v 0.13606500 0.02039600 0.06742600
v 0.14374300 0.01394800 0.05763700
v 0.14119400 0.01551700 0.06370400
v 0.14369300 0.01178900 0.06217500
v 0.14686100 0.00609600 0.05717900
v 0.14512100 0.00794500 0.06235800
v 0.14150500 0.01107300 0.07195000
v 0.14314400 0.00882700 0.06909100
v 0.14416200 0.00506600 0.06907000
v 0.14587000 0.00374100 0.06317500
v 0.13278300 -0.00622600 0.07575700
v 0.12880000 -0.00187600 0.07605700
v 0.14382200 0.00063600 0.07222300
v 0.14566400 -0.00073100 0.06494300
v 0.14804900 0.00910600 0.04758500
v 0.14829200 0.00463000 0.05180500
v 0.14694700 0.00953600 0.05262600
v 0.14782800 0.00188800 0.05560200
v 0.14661300 -0.01064900 0.05211600
v 0.14700400 -0.00551000 0.05717900
v 0.14734000 -0.00131400 0.05819400
v 0.14644700 -0.00740800 0.05780900
v 0.14500000 -0.01252300 0.05587200
v 0.14369600 -0.01558400 0.05421800
v 0.14264600 -0.01401500 0.06209400
v 0.14018400 -0.01861300 0.05906200
v 0.14441000 -0.01004600 0.06259700
v 0.14577300 -0.00280000 0.06393800
v 0.14476800 -0.00400300 0.06745000
v 0.14057700 -0.01521900 0.06668500
v 0.14233000 -0.01162600 0.06795500
v 0.14104500 -0.01286300 0.07020700
v 0.14387500 -0.00784600 0.06735500
v 0.14351100 -0.00368300 0.07269500
v 0.14252000 -0.00835800 0.07174000
v 0.14127600 -0.01046800 0.07309200
v 0.12431000 0.02456200 0.07268300
v 0.12358900 0.02263500 0.07336400
v 0.12662700 0.02416500 0.07246200
v 0.12853500 0.02393900 0.07181100
v 0.12725900 0.02239700 0.07358100
v 0.13056700 0.02224000 0.07287500
v 0.13195200 0.01938300 0.07420200
v 0.13425300 0.01900400 0.07371700
v 0.12898800 0.01659900 0.07474000
v 0.12624700 0.01084100 0.07542800
v 0.13254700 0.01181500 0.07533000
v 0.13400100 0.02054100 0.07224900
v 0.13545500 0.01954100 0.07161700
v 0.13595500 0.01809500 0.07320300
v 0.13787200 0.01664300 0.07250400
v 0.13778100 0.01515800 0.07402900
v 0.13617100 0.01485200 0.07480300
v 0.13945700 0.01445900 0.07247100
v 0.13989400 0.01173500 0.07427100
v 0.13908600 0.00913700 0.07520200
v 0.13012600 0.00768300 0.07577800
v 0.13449600 0.00622300 0.07572500
v 0.13270200 0.00176500 0.07601500
v 0.13857800 -0.00049700 0.07572900
v 0.14174800 0.00855300 0.07359300
v 0.14300500 0.00626800 0.07248300
v 0.14221100 0.00601900 0.07413800
v 0.14152200 0.00195600 0.07524600
v 0.14078400 0.00719300 0.07498900
v 0.14219700 0.00269700 0.07475900
v 0.14284000 0.00029800 0.07431900
v 0.14301400 -0.00314900 0.07394100
v 0.14311900 0.00270800 0.07353900
v 0.14133200 -0.00321400 0.07525400
v 0.13850500 -0.00479000 0.07554800
v 0.13675800 -0.01185900 0.07508400
v 0.14251100 -0.00543900 0.07396200
v 0.14171700 -0.00753100 0.07416300
v 0.14057400 -0.00687600 0.07508500
v 0.13939600 -0.01213400 0.07439300
v 0.13994200 -0.01192800 0.07402600
v 0.06053500 -0.00368900 0.02870300
v 0.06209700 -0.00630000 0.02610500
v 0.09051600 -0.00075500 0.06719000
v 0.09153900 -0.00620900 0.06780500
v 0.09276300 -0.00923700 0.06814400
v 0.09334800 -0.01189400 0.06749300
v 0.09450100 -0.01241000 0.06850900
v 0.09538500 -0.01561400 0.06775800
v 0.09669100 -0.01650900 0.06833600
v 0.09845500 -0.01874600 0.06851800
v 0.09901500 -0.02028600 0.06684000
v 0.10140600 -0.02169700 0.06816200
v 0.10796300 -0.02626600 0.05919800
v 0.10691000 -0.02578200 0.06057200
v 0.10331200 -0.02347700 0.06729400
v 0.10524500 -0.02460200 0.06721900
v 0.10772300 -0.02574500 0.06664500
v 0.09084100 -0.00191800 0.06755900
v 0.09181800 -0.00412100 0.06839900
v 0.09499800 -0.00911600 0.06928000
v 0.10216400 -0.00583200 0.07188600
v 0.10787800 -0.00831200 0.07316300
v 0.10372900 -0.01448400 0.07132400
v 0.09742900 -0.01361800 0.06957900
v 0.09714300 -0.01588400 0.06902800
v 0.10015700 -0.01867500 0.06955100
v 0.10209500 -0.02114500 0.06939300
v 0.10986300 -0.01522700 0.07264000
v 0.10301800 -0.02235500 0.06914100
v 0.10576400 -0.02409300 0.06901100
v 0.10403200 -0.02129500 0.07018400
v 0.10723400 -0.02378200 0.07020200
v 0.10786600 -0.02023200 0.07134400
v 0.10835300 -0.02507800 0.06932900
v 0.11086700 -0.02622500 0.06915900
v 0.11059300 -0.02510000 0.07047700
v 0.11689100 -0.01930900 0.07314400
v 0.11156000 -0.02384600 0.07130600
v 0.11545100 -0.02564300 0.07130700
v 0.11559100 -0.00922800 0.07456500
v 0.11310000 -0.02725000 0.01197400
v 0.11571700 -0.02795100 0.00986300
v 0.11808100 -0.02838000 0.00861100
v 0.11645400 -0.02829900 0.01172300
v 0.12072200 -0.02926700 0.01218000
v 0.12301400 -0.02962800 0.01613700
v 0.12446700 -0.02952700 0.01491900
v 0.10904700 -0.02714500 0.02591300
v 0.11294700 -0.02818600 0.02205300
v 0.11436900 -0.02904000 0.02659100
v 0.11844900 -0.02936000 0.01869900
v 0.11641000 -0.02927300 0.02338900
v 0.11839500 -0.02979300 0.02479200
v 0.11718100 -0.02973200 0.02755200
v 0.12051700 -0.03017600 0.02795000
v 0.11161900 -0.02826500 0.03787000
v 0.11717600 -0.02939200 0.03769600
v 0.11447600 -0.02876600 0.04308700
v 0.12512300 -0.02996400 0.02248600
v 0.12666600 -0.02976100 0.02294500
v 0.12771000 -0.02964000 0.02514500
v 0.12344000 -0.03020900 0.02855800
v 0.12666500 -0.02990800 0.02878400
v 0.13031800 -0.02905500 0.02912900
v 0.10731100 -0.02646700 0.04513900
v 0.10757200 -0.02648500 0.05270600
v 0.11183300 -0.02787800 0.05306300
v 0.11437400 -0.02855500 0.04997700
v 0.12730700 -0.02866500 0.04406100
v 0.12831200 -0.02821300 0.04625400
v 0.12470700 -0.02872900 0.04908100
v 0.11943500 -0.02956400 0.04104300
v 0.12230800 -0.02921800 0.04537800
v 0.12019800 -0.02925400 0.04668300
v 0.11644400 -0.02869200 0.05392200
v 0.11958200 -0.02881400 0.05380000
v 0.12070200 -0.02902300 0.05052000
v 0.11571100 -0.02835500 0.05772400
v 0.11053300 -0.02705400 0.06172700
v 0.12084000 -0.02829700 0.05789600
v 0.12288000 -0.02867600 0.05220200
v 0.12248500 -0.02839900 0.05522100
v 0.12504600 -0.02820700 0.05421600
v 0.12923000 -0.02756300 0.04944000
v 0.12697400 -0.02791700 0.05271300
v 0.13136400 -0.02645500 0.05280200
v 0.12487200 -0.02780300 0.05760700
v 0.12300500 -0.02760300 0.06113600
v 0.12720000 -0.02710000 0.05831900
v 0.12955100 -0.02594700 0.06019100
v 0.12975100 -0.02839400 0.03902500
v 0.13086300 -0.02777000 0.04193300
v 0.13282400 -0.02706700 0.04108100
v 0.13609100 -0.02525100 0.04253300
v 0.13460200 -0.02564900 0.04615500
v 0.13721700 -0.02581000 0.03273500
v 0.13219600 -0.02660600 0.04831800
v 0.13369400 -0.02543700 0.05101600
v 0.13638900 -0.02404300 0.04925200
v 0.13704200 -0.02405400 0.04641200
v 0.13921600 -0.02195300 0.04893100
v 0.13502500 -0.02406300 0.05480900
v 0.13766600 -0.02222800 0.05425000
v 0.11184000 -0.02690500 0.06586900
v 0.11621700 -0.02756900 0.06521500
v 0.11298800 -0.02692600 0.06791400
v 0.11348700 -0.02652000 0.06984100
v 0.11753700 -0.02718500 0.06839200
v 0.11956800 -0.02772800 0.06335500
v 0.12191800 -0.02696600 0.06728900
v 0.11717200 -0.02674300 0.07016300
v 0.11809600 -0.02320700 0.07250200
v 0.12128600 -0.02444000 0.07246000
v 0.12163900 -0.02627100 0.07055500
v 0.12031800 -0.02556700 0.07170700
v 0.12290900 -0.02537300 0.07175400
v 0.12517600 -0.02499600 0.07177800
v 0.13489700 -0.02184000 0.06517100
v 0.13263400 -0.02204500 0.07112600
v 0.13239000 -0.02431200 0.06142900
v 0.12607000 -0.02650800 0.06384300
v 0.12508200 -0.02578800 0.06968900
v 0.12840500 -0.02469600 0.06936300
v 0.12323200 -0.01317800 0.07488400
v 0.12506000 -0.02113400 0.07352200
v 0.12954100 -0.01269900 0.07514900
v 0.12587800 -0.02354800 0.07294200
v 0.13651300 -0.01847200 0.07173100
v 0.13594200 -0.01556500 0.07453200
v 0.13100400 -0.01998700 0.07398900
v 0.13823300 -0.01667300 0.07127800
v 0.13891000 -0.01677100 0.06857600
v 0.13712900 -0.01651300 0.07348000
v 0.13925400 -0.01440900 0.07274800
v 0.13474900 -0.01873500 0.07353500
v 0.13263900 -0.02152300 0.07236200
v 0.13042000 -0.02134500 0.07350900
v 0.12858300 -0.02360300 0.07226900
v 0.13505600 -0.02308300 0.05927700
v 0.13775000 -0.02045100 0.06116600
f 122 121 139
f 139 189 122
f 122 189 121
f 1 137 139
f 401 488 486
f 121 172 169
f 243 242 649
f 688 687 139
f 705 704 690
f 690 704 139
f 621 668 252
f 252 253 621
f 250 253 252
f 139 121 120
f 120 1 139
f 121 169 120
f 120 169 165
f 753 742 754
f 754 742 744
f 739 741 740
f 740 744 742
f 754 744 740
f 137 727 734
f 121 189 183
f 121 186 175
f 613 611 616
f 616 611 663
f 670 616 664
f 664 616 663
f 669 668 621
f 667 665 656
f 668 669 667
f 667 669 665
f 254 253 250
f 810 254 726
f 253 254 810
f 240 242 243
f 653 659 657
f 657 659 658
f 658 659 660
f 244 233 228
f 182 228 227
f 227 228 233
f 647 233 248
f 248 233 244
f 758 741 748
f 689 195 139
f 139 704 689
f 689 704 195
f 139 195 194
f 198 704 705
f 195 704 198
f 192 193 189
f 192 189 139
f 192 194 195
f 139 194 192
f 139 694 692
f 656 654 655
f 654 248 655
f 655 248 244
f 250 246 251
f 726 254 251
f 251 254 250
f 693 692 694
f 709 710 712
f 267 260 290
f 267 266 260
f 275 266 278
f 321 303 319
f 335 329 333
f 480 488 401
f 605 611 613
f 663 611 612
f 608 660 612
f 612 660 663
f 627 623 630
f 569 563 561
f 574 563 573
f 574 627 630
f 573 627 574
f 1 120 13
f 141 120 153
f 736 740 742
f 742 734 736
f 754 740 743
f 743 740 741
f 741 758 743
f 743 761 754
f 758 761 743
f 85 402 137
f 392 727 137
f 487 486 488
f 487 109 486
f 59 44 63
f 275 281 277
f 277 281 283
f 283 279 277
f 277 279 276
f 184 186 121
f 121 183 184
f 174 172 121
f 121 175 174
f 179 191 182
f 179 180 177
f 177 176 179
f 190 193 197
f 189 193 188
f 188 183 189
f 193 190 188
f 188 190 191
f 186 183 188
f 165 160 154
f 154 157 153
f 154 120 165
f 153 120 154
f 165 169 168
f 168 160 165
f 320 325 319
f 347 325 320
f 671 616 670
f 674 664 665
f 816 821 815
f 723 810 726
f 726 714 723
f 724 725 798
f 798 723 724
f 662 654 656
f 662 652 654
f 656 665 662
f 653 652 662
f 665 664 662
f 241 649 242
f 651 652 653
f 653 657 651
f 243 649 651
f 651 657 243
f 236 240 237
f 661 660 659
f 661 662 664
f 661 664 663
f 663 660 661
f 661 659 653
f 653 662 661
f 162 163 161
f 161 157 162
f 178 181 225
f 178 174 177
f 177 180 178
f 180 181 178
f 230 233 647
f 230 227 233
f 225 181 224
f 227 230 224
f 225 224 226
f 225 226 218
f 218 226 219
f 218 219 211
f 211 207 218
f 148 543 145
f 788 781 785
f 811 723 798
f 810 723 811
f 816 810 811
f 811 813 816
f 824 813 803
f 759 763 748
f 759 757 763
f 763 757 767
f 769 767 757
f 757 755 769
f 762 761 758
f 763 767 762
f 753 765 752
f 742 753 752
f 193 192 196
f 197 193 196
f 196 198 197
f 195 198 196
f 196 192 195
f 656 655 666
f 666 655 252
f 666 667 656
f 666 252 668
f 668 667 666
f 249 655 244
f 252 655 249
f 250 252 249
f 244 246 249
f 249 246 250
f 726 251 708
f 708 714 726
f 709 714 708
f 247 251 246
f 247 708 251
f 705 690 691
f 692 693 691
f 691 690 139
f 139 692 691
f 710 693 711
f 711 712 710
f 711 693 694
f 125 120 129
f 129 124 125
f 125 124 120
f 158 161 163
f 157 161 158
f 336 337 335
f 336 373 337
f 335 370 336
f 471 476 473
f 473 476 506
f 283 281 284
f 284 303 283
f 319 303 284
f 284 320 319
f 303 321 304
f 334 370 335
f 335 333 334
f 334 333 370
f 400 480 401
f 626 615 614
f 626 605 613
f 625 627 573
f 568 569 390
f 390 569 389
f 390 388 568
f 389 388 390
f 442 569 561
f 475 378 528
f 475 471 474
f 476 471 475
f 474 339 475
f 337 373 377
f 377 373 375
f 375 388 377
f 377 388 389
f 256 13 120
f 140 141 153
f 129 120 140
f 120 141 140
f 790 765 792
f 703 765 790
f 764 765 753
f 764 753 754
f 754 761 764
f 792 765 764
f 761 762 764
f 735 734 727
f 735 736 734
f 402 85 93
f 727 392 393
f 731 741 739
f 731 732 741
f 516 113 112
f 112 116 516
f 314 468 398
f 397 398 479
f 478 480 479
f 479 398 468
f 314 398 313
f 313 398 397
f 486 109 107
f 137 46 50
f 282 281 275
f 348 544 353
f 543 544 348
f 348 353 349
f 259 17 12
f 275 277 274
f 274 266 275
f 9 12 10
f 14 9 5
f 11 12 7
f 12 9 7
f 7 9 14
f 185 183 186
f 186 184 185
f 185 184 183
f 186 188 187
f 187 188 191
f 187 175 186
f 187 176 175
f 191 179 187
f 187 179 176
f 173 174 175
f 175 176 173
f 177 174 173
f 173 176 177
f 180 179 223
f 227 224 223
f 182 227 223
f 223 179 182
f 223 181 180
f 223 224 181
f 182 191 202
f 202 228 182
f 244 228 202
f 156 154 160
f 157 154 156
f 156 160 162
f 162 157 156
f 162 160 208
f 160 168 208
f 451 450 462
f 433 449 452
f 319 325 323
f 323 321 319
f 323 324 321
f 323 333 329
f 329 324 323
f 679 677 676
f 682 677 679
f 672 671 670
f 678 671 672
f 670 664 672
f 664 674 672
f 619 625 614
f 627 625 619
f 665 669 673
f 673 674 665
f 669 679 673
f 673 679 676
f 620 669 621
f 621 253 620
f 586 585 635
f 635 826 586
f 635 639 818
f 826 635 814
f 719 723 714
f 719 724 723
f 719 714 709
f 718 716 720
f 792 793 721
f 721 790 792
f 703 790 721
f 725 793 797
f 797 801 725
f 649 241 648
f 648 241 646
f 648 651 649
f 211 219 220
f 238 241 242
f 652 651 650
f 650 648 646
f 651 648 650
f 654 652 650
f 650 230 647
f 646 230 650
f 647 248 650
f 650 248 654
f 610 657 658
f 610 660 608
f 658 660 610
f 146 148 145
f 142 148 146
f 209 205 206
f 162 208 206
f 206 163 162
f 206 205 163
f 231 241 232
f 646 241 231
f 232 226 231
f 231 226 224
f 231 230 646
f 231 224 230
f 222 178 225
f 225 218 222
f 222 218 209
f 152 167 212
f 214 215 212
f 212 557 152
f 212 215 216
f 216 557 212
f 211 214 213
f 213 167 211
f 214 212 213
f 213 212 167
f 152 543 150
f 216 215 235
f 235 236 216
f 240 236 235
f 159 148 142
f 210 207 211
f 211 167 210
f 716 701 702
f 703 721 702
f 720 716 702
f 702 721 720
f 702 701 688
f 712 711 696
f 696 694 139
f 139 687 696
f 789 788 785
f 586 826 789
f 785 781 780
f 750 452 463
f 772 788 806
f 772 781 784
f 784 788 772
f 781 788 784
f 799 811 798
f 813 811 799
f 799 801 813
f 798 725 799
f 725 801 799
f 822 824 805
f 805 814 822
f 822 814 821
f 816 813 823
f 813 824 823
f 824 822 823
f 823 821 816
f 823 822 821
f 805 824 809
f 809 806 805
f 803 813 802
f 813 801 802
f 756 755 750
f 750 755 749
f 749 452 750
f 749 755 757
f 749 759 748
f 757 759 749
f 773 807 796
f 775 807 773
f 767 769 768
f 763 762 760
f 760 762 758
f 748 763 760
f 760 758 748
f 699 765 703
f 699 752 765
f 703 702 700
f 700 699 703
f 752 699 700
f 700 702 688
f 751 734 742
f 742 752 751
f 706 693 710
f 705 691 706
f 706 691 693
f 200 190 197
f 340 292 293
f 293 292 278
f 293 291 131
f 275 278 288
f 278 292 288
f 288 282 275
f 292 282 288
f 157 158 155
f 155 158 135
f 153 157 155
f 155 140 153
f 135 140 155
f 127 291 290
f 131 291 127
f 290 124 127
f 129 140 130
f 130 140 135
f 128 127 130
f 468 469 477
f 477 479 468
f 478 479 477
f 472 469 470
f 470 471 472
f 472 471 473
f 335 337 338
f 528 506 525
f 525 506 476
f 525 475 528
f 476 475 525
f 283 303 300
f 303 304 300
f 300 279 283
f 301 279 300
f 300 304 301
f 307 304 322
f 321 324 322
f 322 304 321
f 588 574 630
f 501 472 473
f 494 483 484
f 484 503 494
f 502 503 484
f 616 671 617
f 671 615 617
f 613 616 617
f 617 626 613
f 615 626 617
f 573 563 571
f 571 625 573
f 563 569 571
f 569 625 571
f 572 625 569
f 572 626 614
f 614 625 572
f 389 569 440
f 569 442 440
f 389 440 437
f 437 440 442
f 528 378 437
f 437 442 528
f 439 442 561
f 528 442 439
f 439 438 528
f 372 339 337
f 337 377 372
f 376 377 389
f 376 475 339
f 339 372 376
f 376 372 377
f 120 124 123
f 123 256 120
f 13 256 255
f 260 258 255
f 11 13 255
f 255 258 11
f 59 45 41
f 41 44 59
f 41 21 44
f 44 21 19
f 23 26 1
f 1 24 23
f 58 85 137
f 137 57 58
f 84 93 58
f 58 93 85
f 1 26 28
f 748 741 745
f 741 732 745
f 745 749 748
f 431 745 424
f 402 393 391
f 391 393 392
f 137 402 391
f 391 392 137
f 737 731 739
f 110 112 113
f 397 479 399
f 399 479 480
f 399 400 397
f 480 400 399
f 307 306 302
f 301 304 302
f 302 304 307
f 308 306 307
f 73 313 397
f 73 66 63
f 62 63 44
f 310 313 62
f 280 279 301
f 301 302 305
f 305 302 306
f 305 306 310
f 109 116 108
f 116 112 108
f 137 50 52
f 340 293 342
f 342 293 131
f 145 543 342
f 342 134 145
f 341 292 340
f 340 342 341
f 344 342 543
f 344 348 343
f 344 341 342
f 343 341 344
f 279 280 273
f 269 273 259
f 11 258 257
f 258 261 257
f 257 12 11
f 257 259 12
f 261 269 257
f 257 269 259
f 263 261 258
f 3 5 2
f 14 5 3
f 2 5 37
f 1 2 37
f 37 24 1
f 6 13 11
f 11 7 6
f 1 13 6
f 191 190 203
f 203 202 191
f 190 200 203
f 170 168 169
f 170 169 172
f 172 174 170
f 435 449 433
f 433 430 435
f 433 452 432
f 432 430 433
f 431 430 432
f 510 520 498
f 493 483 494
f 495 498 490
f 495 493 498
f 489 487 488
f 489 495 490
f 109 487 489
f 516 116 514
f 514 515 516
f 496 515 514
f 462 450 464
f 594 236 237
f 216 236 594
f 682 644 643
f 643 677 682
f 638 637 643
f 630 623 643
f 643 637 630
f 645 820 641
f 645 644 682
f 618 619 614
f 614 615 618
f 618 615 671
f 675 673 676
f 676 678 675
f 678 672 675
f 675 672 674
f 674 673 675
f 253 810 812
f 812 620 253
f 812 810 816
f 818 639 817
f 820 814 817
f 641 820 817
f 817 639 641
f 817 635 818
f 817 814 635
f 633 635 585
f 639 635 633
f 821 814 819
f 819 814 820
f 685 815 819
f 819 815 821
f 724 719 717
f 717 718 724
f 709 712 717
f 717 719 709
f 725 724 722
f 724 718 722
f 722 793 725
f 722 721 793
f 722 718 720
f 720 721 722
f 794 793 792
f 794 797 793
f 217 215 214
f 217 235 215
f 232 241 229
f 241 238 229
f 229 226 232
f 219 226 229
f 229 220 219
f 229 214 211
f 211 220 229
f 243 657 609
f 657 610 609
f 609 240 243
f 237 240 609
f 568 566 570
f 568 570 604
f 604 626 568
f 605 626 604
f 607 598 597
f 607 610 608
f 597 610 607
f 178 206 171
f 171 206 208
f 174 178 171
f 171 170 174
f 171 208 168
f 168 170 171
f 221 206 178
f 178 222 221
f 209 206 221
f 221 222 209
f 204 218 207
f 204 159 163
f 209 218 204
f 204 205 209
f 163 205 204
f 149 150 543
f 149 167 152
f 152 150 149
f 543 148 149
f 695 711 694
f 694 696 695
f 695 696 711
f 687 688 697
f 697 696 687
f 584 464 583
f 788 789 825
f 805 806 825
f 825 806 788
f 783 781 772
f 782 780 781
f 781 783 782
f 462 464 782
f 782 464 780
f 462 782 461
f 461 782 463
f 461 452 449
f 461 463 452
f 808 824 803
f 808 809 824
f 796 807 808
f 807 809 808
f 776 807 775
f 776 809 807
f 776 775 772
f 772 806 776
f 806 809 776
f 771 769 755
f 755 756 771
f 775 773 771
f 771 773 769
f 756 770 771
f 772 775 771
f 771 770 772
f 774 773 796
f 766 762 767
f 767 768 766
f 766 774 796
f 766 768 769
f 769 773 766
f 773 774 766
f 138 751 752
f 138 700 688
f 752 700 138
f 734 751 138
f 137 734 138
f 139 137 138
f 138 688 139
f 708 247 707
f 707 706 710
f 707 710 709
f 709 708 707
f 287 293 278
f 266 267 287
f 287 278 266
f 147 158 163
f 163 159 147
f 135 158 136
f 158 147 136
f 142 146 144
f 145 134 144
f 144 146 145
f 134 342 144
f 126 127 124
f 126 130 127
f 126 124 129
f 129 130 126
f 469 472 500
f 500 501 502
f 472 501 500
f 467 338 337
f 474 471 467
f 467 339 474
f 337 339 467
f 473 506 507
f 507 501 473
f 508 501 507
f 528 438 529
f 562 439 561
f 438 439 562
f 561 563 562
f 316 317 315
f 315 308 316
f 310 306 315
f 306 308 315
f 315 317 314
f 314 313 315
f 315 313 310
f 492 482 483
f 492 489 488
f 495 489 492
f 483 493 492
f 493 495 492
f 504 503 502
f 504 501 508
f 502 501 504
f 624 572 569
f 626 572 624
f 624 569 568
f 568 626 624
f 389 437 379
f 379 437 378
f 378 475 379
f 379 376 389
f 475 376 379
f 290 260 265
f 265 124 290
f 256 123 264
f 264 255 256
f 264 123 124
f 124 265 264
f 260 255 264
f 264 265 260
f 44 19 22
f 22 19 20
f 20 286 22
f 22 62 44
f 20 19 16
f 10 12 16
f 12 17 16
f 21 41 18
f 18 19 21
f 18 16 19
f 18 5 9
f 732 731 421
f 421 424 732
f 421 731 420
f 733 745 732
f 732 424 733
f 733 424 745
f 115 110 417
f 431 424 423
f 423 417 431
f 423 115 417
f 728 393 402
f 402 394 728
f 727 393 728
f 728 735 727
f 736 735 728
f 739 740 738
f 738 737 739
f 740 736 738
f 111 110 113
f 417 110 111
f 65 73 63
f 63 62 65
f 65 62 313
f 80 107 105
f 105 78 80
f 486 107 80
f 90 78 105
f 271 286 20
f 271 273 280
f 20 16 271
f 285 280 301
f 301 305 285
f 285 271 280
f 285 305 286
f 286 271 285
f 101 90 105
f 294 282 292
f 292 341 294
f 294 297 282
f 294 341 343
f 543 348 352
f 352 344 543
f 348 344 352
f 347 320 299
f 298 296 282
f 282 297 298
f 298 294 343
f 297 294 298
f 273 269 272
f 276 279 272
f 279 273 272
f 268 269 261
f 261 263 268
f 276 272 268
f 268 272 269
f 268 277 276
f 268 274 277
f 268 263 274
f 262 258 260
f 262 263 258
f 260 266 262
f 266 274 262
f 274 263 262
f 118 37 5
f 118 18 119
f 5 18 118
f 4 2 1
f 4 3 2
f 14 3 4
f 245 203 200
f 245 247 246
f 245 200 247
f 202 203 245
f 245 246 244
f 244 202 245
f 434 435 430
f 431 432 448
f 448 432 452
f 448 425 431
f 452 425 448
f 453 540 541
f 541 524 539
f 540 524 541
f 446 520 523
f 523 540 446
f 523 520 510
f 446 540 447
f 447 540 453
f 447 428 446
f 453 464 447
f 447 464 450
f 521 515 496
f 516 515 521
f 518 520 446
f 446 428 518
f 497 498 520
f 497 518 496
f 520 518 497
f 496 490 497
f 490 498 497
f 539 524 532
f 109 489 491
f 491 116 109
f 491 514 116
f 491 489 490
f 491 490 496
f 496 514 491
f 494 503 505
f 503 504 505
f 505 504 508
f 595 594 237
f 237 609 595
f 820 645 686
f 685 819 686
f 686 819 820
f 620 812 681
f 681 815 685
f 685 684 681
f 816 815 681
f 681 812 816
f 619 618 622
f 622 671 678
f 622 618 671
f 622 643 623
f 623 627 622
f 627 619 622
f 622 678 676
f 676 677 622
f 677 643 622
f 629 588 630
f 630 637 629
f 629 637 638
f 641 639 634
f 639 633 634
f 712 696 713
f 713 717 712
f 791 764 762
f 792 764 791
f 791 794 792
f 234 217 214
f 238 217 234
f 214 229 234
f 234 229 238
f 235 217 239
f 242 240 239
f 240 235 239
f 239 238 242
f 239 217 238
f 362 333 327
f 370 333 366
f 333 362 366
f 366 362 368
f 560 555 597
f 597 598 560
f 566 599 600
f 600 570 566
f 600 604 570
f 605 604 600
f 159 204 164
f 164 204 207
f 148 159 164
f 164 166 148
f 207 210 164
f 210 166 164
f 151 210 167
f 167 149 151
f 151 166 210
f 148 166 151
f 151 149 148
f 688 701 698
f 698 697 688
f 696 697 698
f 787 584 583
f 789 584 787
f 787 583 586
f 586 789 787
f 780 464 786
f 464 584 786
f 785 780 786
f 786 789 785
f 786 584 789
f 805 825 804
f 804 814 805
f 826 814 804
f 804 789 826
f 804 825 789
f 463 782 779
f 779 782 783
f 460 451 462
f 462 461 460
f 460 461 451
f 801 797 800
f 800 802 801
f 796 808 800
f 803 802 800
f 800 808 803
f 800 794 796
f 797 794 800
f 452 749 747
f 747 425 452
f 749 745 746
f 746 747 749
f 425 747 746
f 746 745 431
f 431 425 746
f 762 766 795
f 795 791 762
f 794 791 795
f 796 794 795
f 795 766 796
f 197 198 199
f 199 198 705
f 705 706 199
f 706 707 199
f 247 200 201
f 201 707 247
f 201 199 707
f 201 200 197
f 197 199 201
f 291 293 289
f 293 287 289
f 289 287 267
f 289 267 290
f 290 291 289
f 133 130 135
f 135 136 133
f 142 144 143
f 143 159 142
f 143 147 159
f 143 136 147
f 143 144 136
f 481 482 478
f 469 500 481
f 483 482 481
f 478 477 481
f 481 477 469
f 481 484 483
f 502 484 481
f 481 500 502
f 307 322 328
f 328 322 324
f 328 324 329
f 316 330 318
f 318 317 316
f 318 468 314
f 314 317 318
f 338 467 466
f 466 471 470
f 466 467 471
f 508 507 527
f 527 507 538
f 526 507 506
f 538 507 526
f 526 529 538
f 526 506 528
f 528 529 526
f 485 492 488
f 482 492 485
f 488 480 485
f 485 480 478
f 478 482 485
f 117 39 29
f 24 37 117
f 37 118 117
f 119 39 117
f 117 118 119
f 43 45 59
f 59 63 64
f 63 66 64
f 66 61 64
f 60 43 59
f 59 64 60
f 60 64 61
f 45 43 60
f 310 62 309
f 62 22 309
f 309 22 286
f 309 305 310
f 286 305 309
f 119 18 38
f 38 18 41
f 38 39 119
f 10 16 15
f 16 18 15
f 15 9 10
f 15 18 9
f 30 27 29
f 26 27 30
f 30 28 26
f 412 113 516
f 516 413 412
f 412 111 113
f 418 430 431
f 431 417 418
f 402 93 96
f 403 394 402
f 402 98 403
f 420 404 408
f 404 406 408
f 407 406 114
f 97 406 404
f 737 738 730
f 736 728 730
f 730 738 736
f 729 394 420
f 420 731 729
f 729 730 728
f 731 737 729
f 737 730 729
f 103 115 114
f 110 115 103
f 104 108 112
f 104 103 95
f 112 110 104
f 110 103 104
f 313 73 312
f 312 65 313
f 73 65 312
f 74 61 66
f 79 400 401
f 401 486 77
f 77 79 401
f 76 79 77
f 486 80 77
f 77 80 78
f 259 273 270
f 273 271 270
f 17 259 270
f 270 16 17
f 270 271 16
f 106 107 109
f 109 108 106
f 105 107 106
f 92 87 91
f 91 87 101
f 88 90 89
f 90 101 89
f 101 87 89
f 295 299 320
f 320 284 295
f 295 284 281
f 281 282 295
f 282 296 295
f 349 347 346
f 347 299 346
f 346 348 349
f 299 295 346
f 8 6 7
f 8 7 14
f 14 4 8
f 1 6 8
f 8 4 1
f 419 434 430
f 430 418 419
f 419 412 413
f 510 524 522
f 522 524 540
f 522 523 510
f 540 523 522
f 498 493 499
f 510 498 499
f 499 524 510
f 517 521 496
f 428 521 519
f 519 518 428
f 521 517 519
f 496 518 519
f 519 517 496
f 509 499 493
f 509 493 494
f 494 505 509
f 513 531 533
f 533 505 513
f 508 531 513
f 513 505 508
f 606 609 610
f 606 595 609
f 606 610 597
f 597 595 606
f 683 645 682
f 683 686 645
f 682 679 683
f 679 684 683
f 683 684 685
f 685 686 683
f 669 620 680
f 620 681 680
f 680 681 684
f 680 679 669
f 680 684 679
f 636 628 631
f 588 629 631
f 638 643 631
f 631 629 638
f 641 634 640
f 640 645 641
f 644 645 640
f 640 636 644
f 632 634 633
f 632 633 592
f 632 628 636
f 636 640 632
f 632 640 634
f 326 362 327
f 327 333 326
f 333 323 326
f 326 323 325
f 368 382 369
f 370 366 369
f 369 366 368
f 375 373 371
f 371 336 370
f 373 336 371
f 375 371 383
f 555 560 556
f 384 381 555
f 385 368 381
f 385 382 368
f 381 384 385
f 385 383 382
f 385 556 383
f 555 556 385
f 385 384 555
f 602 560 598
f 602 607 608
f 598 607 602
f 715 713 696
f 696 698 715
f 716 718 715
f 715 701 716
f 715 698 701
f 718 717 715
f 717 713 715
f 778 770 756
f 778 779 783
f 778 783 772
f 772 770 778
f 750 463 778
f 463 779 778
f 128 130 132
f 130 133 132
f 131 127 132
f 132 127 128
f 132 133 136
f 136 144 132
f 132 342 131
f 132 144 342
f 307 328 311
f 311 328 330
f 311 330 316
f 311 308 307
f 316 308 311
f 338 466 332
f 468 318 465
f 465 318 330
f 465 469 468
f 330 332 465
f 465 332 466
f 470 469 465
f 465 466 470
f 535 531 508
f 508 527 535
f 34 30 29
f 29 27 25
f 25 117 29
f 26 23 25
f 25 27 26
f 25 23 24
f 24 117 25
f 42 40 39
f 39 38 42
f 42 38 41
f 42 41 45
f 45 40 42
f 115 423 416
f 423 411 416
f 114 115 416
f 416 407 114
f 422 423 424
f 422 411 423
f 424 421 422
f 421 411 422
f 414 418 417
f 417 111 414
f 111 412 414
f 412 419 414
f 414 419 418
f 394 403 405
f 405 403 98
f 405 98 404
f 405 404 420
f 420 394 405
f 94 93 84
f 84 92 94
f 92 91 94
f 94 91 95
f 94 96 93
f 404 98 94
f 94 97 404
f 94 98 402
f 402 96 94
f 395 728 394
f 394 729 395
f 395 729 728
f 102 104 95
f 95 91 102
f 102 91 101
f 108 104 102
f 102 106 108
f 75 74 397
f 76 74 75
f 75 79 76
f 397 400 75
f 400 79 75
f 396 73 397
f 397 74 396
f 66 73 396
f 396 74 66
f 61 74 72
f 72 74 76
f 348 346 345
f 343 348 345
f 345 298 343
f 296 298 345
f 345 295 296
f 345 346 295
f 457 541 539
f 583 464 582
f 586 583 582
f 591 577 633
f 591 633 585
f 591 582 576
f 591 585 586
f 586 582 591
f 521 427 415
f 415 413 516
f 516 521 415
f 415 427 434
f 415 419 413
f 434 419 415
f 426 521 428
f 426 427 521
f 428 447 436
f 436 447 450
f 450 451 436
f 449 435 436
f 435 434 436
f 434 427 436
f 436 461 449
f 451 461 436
f 511 532 524
f 511 509 532
f 524 499 511
f 499 509 511
f 512 505 533
f 512 509 505
f 533 532 512
f 532 509 512
f 539 532 536
f 536 532 533
f 533 531 536
f 577 591 575
f 575 591 576
f 589 632 592
f 628 632 589
f 642 643 644
f 642 631 643
f 644 636 642
f 636 631 642
f 368 362 363
f 362 326 363
f 363 326 325
f 325 360 363
f 374 369 382
f 382 383 374
f 374 383 371
f 370 369 374
f 374 371 370
f 375 383 387
f 387 388 375
f 387 566 568
f 568 388 387
f 386 556 566
f 383 556 386
f 566 387 386
f 386 387 383
f 567 599 566
f 566 556 567
f 555 381 380
f 358 359 356
f 601 612 611
f 608 612 601
f 601 602 608
f 559 556 560
f 560 602 559
f 559 602 599
f 599 567 559
f 559 567 556
f 777 756 750
f 750 778 777
f 777 778 756
f 331 328 329
f 331 329 335
f 330 328 331
f 331 332 330
f 335 338 331
f 338 332 331
f 530 527 538
f 538 535 530
f 530 535 527
f 32 34 29
f 29 39 32
f 39 40 32
f 48 34 49
f 67 61 68
f 67 60 61
f 88 89 83
f 83 89 87
f 88 83 56
f 56 83 81
f 407 416 409
f 409 421 420
f 409 416 411
f 406 407 409
f 420 408 409
f 409 408 406
f 99 103 114
f 97 94 99
f 95 103 99
f 99 94 95
f 114 406 99
f 406 97 99
f 100 102 101
f 106 102 100
f 100 101 105
f 105 106 100
f 76 77 71
f 71 72 76
f 71 77 78
f 78 90 71
f 453 541 458
f 541 457 458
f 458 464 453
f 458 576 464
f 458 457 576
f 464 576 581
f 581 582 464
f 576 582 581
f 429 426 428
f 427 426 429
f 428 436 429
f 429 436 427
f 539 536 542
f 542 536 456
f 531 535 534
f 534 536 531
f 455 457 539
f 577 575 580
f 365 363 360
f 381 368 367
f 368 363 367
f 367 380 381
f 367 365 356
f 356 359 367
f 359 380 367
f 555 380 549
f 549 380 359
f 359 548 549
f 594 595 596
f 550 557 216
f 152 557 550
f 603 601 611
f 611 605 603
f 605 600 603
f 603 600 599
f 599 602 603
f 602 601 603
f 564 562 563
f 563 574 564
f 588 565 564
f 574 588 564
f 33 40 45
f 33 32 40
f 53 83 87
f 81 83 53
f 49 81 53
f 53 48 49
f 30 34 47
f 34 48 47
f 47 50 46
f 137 1 47
f 47 46 137
f 88 56 82
f 82 56 69
f 69 67 82
f 410 411 421
f 421 409 410
f 410 409 411
f 61 72 70
f 72 71 70
f 68 61 70
f 70 67 68
f 70 82 67
f 88 82 70
f 70 90 88
f 70 71 90
f 454 542 456
f 456 580 454
f 454 580 575
f 457 455 454
f 539 542 454
f 454 455 539
f 576 457 454
f 577 580 578
f 592 633 578
f 633 577 578
f 578 589 592
f 578 580 589
f 361 360 325
f 361 365 360
f 361 325 347
f 347 350 361
f 350 365 361
f 363 365 364
f 364 367 363
f 365 367 364
f 558 549 548
f 597 555 558
f 555 549 558
f 353 544 546
f 546 357 353
f 349 353 354
f 353 357 354
f 354 347 349
f 354 351 347
f 444 535 538
f 538 443 444
f 444 443 565
f 565 443 441
f 441 564 565
f 441 443 538
f 562 564 441
f 438 562 441
f 441 529 438
f 538 529 441
f 36 33 45
f 45 60 36
f 60 67 36
f 36 67 69
f 49 34 36
f 32 33 36
f 69 56 36
f 36 81 49
f 36 56 81
f 55 53 87
f 30 47 31
f 28 30 31
f 31 47 1
f 1 28 31
f 459 575 576
f 576 454 459
f 459 454 575
f 587 565 588
f 216 594 553
f 553 550 216
f 593 558 548
f 548 552 593
f 593 596 595
f 593 595 597
f 597 558 593
f 594 596 593
f 554 552 548
f 548 546 554
f 152 550 545
f 550 546 545
f 545 546 544
f 545 543 152
f 545 544 543
f 547 546 548
f 351 354 355
f 355 365 350
f 356 365 355
f 355 350 347
f 347 351 355
f 355 358 356
f 359 358 355
f 355 354 357
f 357 546 355
f 355 548 359
f 355 547 548
f 546 547 355
f 445 580 456
f 579 444 565
f 580 445 579
f 565 587 579
f 589 580 579
f 34 32 35
f 35 36 34
f 32 36 35
f 86 87 92
f 86 55 87
f 86 92 84
f 84 58 54
f 54 58 57
f 54 86 84
f 55 86 54
f 54 57 137
f 137 52 54
f 48 53 51
f 53 55 51
f 55 54 51
f 50 47 51
f 51 47 48
f 51 52 50
f 51 54 52
f 590 631 628
f 590 579 587
f 628 589 590
f 589 579 590
f 588 631 590
f 590 587 588
f 551 593 552
f 550 553 551
f 551 553 594
f 594 593 551
f 551 546 550
f 552 554 551
f 551 554 546
f 456 536 537
f 537 445 456
f 536 534 537
f 537 534 535
f 535 444 537
f 444 579 537
f 537 579 445

