# https://github.com/mikedh/trimesh
v -0.12955900 0.00808000 -0.01489600
v -0.13145200 0.00755800 -0.01532800
v -0.13146800 0.00880400 -0.01406300
v -0.13377900 0.00708800 -0.01340600
v -0.13299100 0.00535100 -0.01575200
v -0.13374000 0.00444500 -0.01537800
v -0.13453300 0.00784600 -0.01024000
v -0.13414800 0.00411200 -0.01462600
v -0.13274100 0.00910900 -0.01218400
v -0.13388500 0.00161900 -0.01606500
v -0.13422500 -0.00155000 -0.01548800
v -0.13135000 0.00444400 -0.01738500
v -0.13096100 0.00206700 -0.01826800
v -0.13281300 0.00253000 -0.01715800
v -0.13003000 0.00512200 -0.01729500
v -0.12989200 0.00180000 -0.01838900
v -0.13164100 -0.00018700 -0.01813800
v -0.13355800 0.00015800 -0.01672700
v -0.13345800 -0.00200700 -0.01638300
v -0.13086700 -0.00019800 -0.01845000
v -0.12892800 -0.00103600 -0.01818200
v -0.13105100 -0.00242500 -0.01785800
v -0.13357700 -0.00425700 -0.01493200
v -0.13200100 -0.00361000 -0.01680400
v -0.13085900 -0.00478200 -0.01672700
v -0.12845100 -0.00272900 -0.01753700
v -0.13423600 -0.00509800 -0.01343800
v -0.13487300 -0.00522100 -0.01105800
v -0.13444300 -0.00674300 -0.01116700
v -0.13179700 -0.00625100 -0.01510300
v -0.13251100 -0.00776200 -0.01254200
v -0.12986800 -0.00569800 -0.01582100
v -0.13105800 -0.00770100 -0.01368500
v -0.13162300 -0.00869700 -0.01180000
v -0.13508500 -0.00740600 -0.00801900
v -0.13270400 -0.00889100 -0.01025800
v -0.13357300 -0.00931800 -0.00729000
v -0.13173700 -0.00979700 -0.00907100
v -0.12982000 -0.00929200 -0.01025500
v -0.13449000 0.00972100 -0.00720600
v -0.13400700 0.00922900 -0.00982300
v -0.13268100 0.01032200 -0.01007900
v -0.13150700 0.01000400 -0.01219200
v -0.13006200 0.00986200 -0.01258800
v -0.13062000 0.01085100 -0.01100800
v -0.13149500 0.01158400 -0.00849800
v -0.13298800 0.01124500 -0.00653100
v -0.13520200 0.00898300 -0.00474100
v -0.13466800 0.01011100 -0.00452000
v -0.13258200 0.01200300 -0.00312100
v -0.13496200 0.01002400 -0.00115200
v -0.13171000 0.01221400 -0.00495400
v -0.13054500 0.01196100 -0.00653300
v -0.13109500 0.01217800 -0.00337600
v -0.13291300 0.01139100 0.00077600
v -0.13123300 0.01190100 -0.00039800
v -0.13295800 0.01074800 0.00279600
v -0.13079400 0.01092600 0.00275500
v -0.13581800 0.00182500 -0.00429900
v -0.13588300 0.00831200 0.00051300
v -0.13642000 0.00084700 0.00419300
v -0.13624500 -0.00583000 -0.00016900
v -0.13540300 -0.00772000 -0.00502700
v -0.13582100 -0.00723100 -0.00114100
v -0.13356100 -0.00974100 -0.00200700
v -0.13458400 -0.00881700 -0.00379200
v -0.13395500 -0.00931100 -0.00039000
v -0.13611900 -0.00550100 0.00338100
v -0.13527000 -0.00712700 0.00248500
v -0.13417600 -0.00754300 0.00426400
v -0.13503900 0.00900200 0.00291400
v -0.13597000 0.00694300 0.00401300
v -0.13571100 0.00598400 0.00598900
v -0.13357100 0.00967600 0.00442400
v -0.13637400 0.00435200 0.00403900
v -0.13628800 0.00428100 0.00595500
v -0.13189300 0.00987900 0.00484800
v -0.13336500 0.00820400 0.00666100
v -0.13390700 0.00843100 0.00586200
v -0.13430800 0.00644600 0.00747600
v -0.13283200 0.00581600 0.00871700
v -0.13238800 0.00807700 0.00700300
v -0.13398600 0.00501100 0.00881100
v -0.13566800 0.00329000 0.00773800
v -0.13607100 0.00099800 0.00787800
v -0.13420500 0.00157000 0.00983400
v -0.13261700 0.00364000 0.00972000
v -0.13299100 0.00148800 0.01014800
v -0.13643300 -0.00004700 0.00691200
v -0.13641700 -0.00292200 0.00546900
v -0.13614400 -0.00163100 0.00700200
v -0.13566200 -0.00465300 0.00566200
v -0.13559300 -0.00346200 0.00688200
v -0.13412000 -0.00576400 0.00673900
v -0.13304400 -0.00658700 0.00635900
v -0.13326800 -0.00835500 0.00363800
v -0.13485400 -0.00131200 0.00880200
v -0.13410100 -0.00304300 0.00871300
v -0.13372500 -0.00035900 0.00982400
v -0.13273400 -0.00294400 0.00919200
v -0.13341800 -0.00510800 0.00768800
v -0.13235700 -0.01016100 -0.00660100
v -0.13144900 -0.01044000 -0.00579600
v -0.13285300 -0.01017200 -0.00415200
v -0.12975600 -0.01037400 -0.00379700
v -0.13240200 -0.01004200 -0.00109000
v -0.13264700 -0.00941700 0.00146300
v -0.03982800 -0.01093100 0.00667800
v -0.04020700 -0.01083000 0.00878000
v -0.04241600 -0.00990100 0.01198000
v -0.03574700 -0.01063100 0.01077900
v -0.03546800 -0.01052400 0.00486600
v 0.08745100 0.00699900 0.01468400
v 0.08679600 0.00766700 0.01683400
v 0.08773000 0.00823100 0.01996700
v 0.08776700 -0.00347600 0.01079000
v 0.08782300 -0.00475000 0.01110300
v 0.08703000 0.00341600 0.01140900
v 0.08795300 0.00010900 0.01068400
v 0.08901100 0.00504600 0.01212300
v 0.08840100 -0.00683200 0.01210800
v 0.08745700 -0.00765300 0.01315000
v 0.08756800 -0.00904700 0.01526200
v 0.08884400 -0.00996000 0.01857500
v 0.08945900 -0.01038900 0.02185900
v 0.08806200 -0.01003800 0.02656000
v 0.08892500 0.00854200 0.02744500
v 0.08968500 0.00300600 0.03609100
v 0.08795000 -0.00922800 0.03098800
v 0.08984900 0.00023900 0.05792800
f 128 127 130
f 120 127 128
f 130 125 128
f 128 125 120
f 130 58 77
f 130 127 56
f 56 58 130
f 129 125 130
f 130 110 129
f 129 110 111
f 125 129 126
f 126 129 111
f 115 127 120
f 52 127 115
f 124 125 108
f 82 81 130
f 78 81 82
f 130 77 82
f 82 77 78
f 87 88 130
f 130 81 87
f 78 77 74
f 54 127 52
f 54 56 127
f 111 106 109
f 109 126 111
f 108 125 109
f 125 126 109
f 130 96 107
f 107 110 130
f 111 110 107
f 107 106 111
f 113 115 120
f 114 115 113
f 113 45 114
f 120 44 113
f 44 45 113
f 114 45 46
f 89 90 91
f 91 85 89
f 97 85 91
f 121 124 123
f 120 125 121
f 125 124 121
f 84 73 76
f 76 85 84
f 89 85 76
f 76 75 89
f 130 88 99
f 99 100 130
f 78 74 79
f 79 80 78
f 73 80 79
f 73 79 71
f 71 79 74
f 58 56 57
f 57 77 58
f 57 74 77
f 57 71 74
f 118 16 120
f 53 115 114
f 114 46 53
f 52 115 53
f 53 46 52
f 63 64 62
f 93 91 90
f 97 91 93
f 95 96 130
f 122 121 123
f 26 121 25
f 16 118 119
f 120 121 119
f 119 118 120
f 123 124 112
f 112 38 123
f 112 124 108
f 83 87 81
f 83 81 78
f 78 80 83
f 83 73 84
f 83 80 73
f 98 99 97
f 100 99 98
f 97 93 98
f 98 93 94
f 72 71 60
f 73 71 72
f 72 76 73
f 60 75 72
f 75 76 72
f 60 71 51
f 52 46 47
f 96 95 70
f 70 95 94
f 61 62 90
f 75 62 61
f 61 90 89
f 89 75 61
f 68 64 69
f 68 62 64
f 90 62 68
f 69 70 68
f 94 95 101
f 100 98 101
f 101 98 94
f 130 100 101
f 101 95 130
f 16 119 21
f 103 112 108
f 38 112 103
f 106 104 103
f 69 64 67
f 106 107 67
f 67 70 69
f 67 107 96
f 96 70 67
f 123 38 39
f 25 121 32
f 88 87 86
f 87 83 86
f 86 99 88
f 84 85 86
f 86 83 84
f 86 85 97
f 97 99 86
f 49 47 40
f 52 47 50
f 50 54 52
f 56 54 50
f 50 49 51
f 47 49 50
f 71 57 55
f 55 51 71
f 55 50 51
f 55 57 56
f 56 50 55
f 6 8 4
f 8 7 4
f 3 45 44
f 3 4 9
f 2 4 3
f 22 26 25
f 22 21 26
f 40 47 42
f 42 47 46
f 63 62 35
f 35 37 63
f 29 37 35
f 17 22 19
f 92 70 94
f 92 68 70
f 94 93 92
f 92 93 90
f 90 68 92
f 16 21 20
f 20 22 17
f 21 22 20
f 116 119 121
f 116 21 119
f 102 37 38
f 104 37 102
f 38 103 102
f 102 103 104
f 29 31 36
f 36 37 29
f 38 37 36
f 108 109 105
f 105 103 108
f 105 109 106
f 106 103 105
f 66 64 63
f 66 67 64
f 63 37 66
f 66 37 104
f 2 12 5
f 6 4 5
f 5 4 2
f 6 5 14
f 14 5 12
f 15 12 2
f 120 16 15
f 40 42 41
f 41 42 9
f 9 4 41
f 41 7 40
f 41 4 7
f 43 3 9
f 9 42 43
f 45 3 43
f 43 46 45
f 43 42 46
f 40 7 48
f 48 49 40
f 60 51 48
f 51 49 48
f 121 26 117
f 117 116 121
f 26 21 117
f 21 116 117
f 65 66 104
f 67 66 65
f 65 104 106
f 106 67 65
f 25 30 24
f 24 22 25
f 24 19 22
f 31 30 33
f 33 122 123
f 33 32 121
f 25 32 33
f 33 30 25
f 121 122 33
f 23 11 19
f 19 24 23
f 23 24 30
f 17 14 13
f 13 14 12
f 13 20 17
f 16 20 13
f 13 15 16
f 12 15 13
f 120 15 1
f 1 15 2
f 2 3 1
f 1 44 120
f 1 3 44
f 59 62 75
f 8 11 59
f 59 75 60
f 60 48 59
f 59 7 8
f 59 48 7
f 10 8 6
f 10 11 8
f 6 14 10
f 34 36 31
f 31 33 34
f 38 36 34
f 34 39 38
f 123 39 34
f 34 33 123
f 11 23 27
f 27 23 30
f 27 31 29
f 27 30 31
f 62 59 28
f 28 59 11
f 28 35 62
f 11 27 28
f 29 35 28
f 28 27 29
f 19 11 18
f 11 10 18
f 18 10 14
f 17 19 18
f 18 14 17

